<?xml version="1.0" encoding="UTF-8"?>
<svg xmlns="http://www.w3.org/2000/svg" viewBox="0 0 226.01 283.14">
  <defs>
    <style>
      .cls-1, .cls-2, .cls-3, .cls-4, .cls-5, .cls-6 {
        stroke: #000;
      }

      .cls-1, .cls-2, .cls-5, .cls-6 {
        stroke-miterlimit: 10;
      }

      .cls-1, .cls-4, .cls-5 {
        fill: none;
      }

      .cls-2, .cls-3, .cls-4, .cls-5, .cls-6 {
        stroke-linecap: round;
      }

      .cls-7, .cls-3, .cls-6 {
        fill: #fff;
      }

      .cls-3, .cls-4 {
        stroke-linejoin: round;
      }
    </style>
  </defs>
  <g id="poltrona">
    <path class="cls-4" d="M89.16,167.57c0-43.34,12.77-62.03,45.59-62.05,33.04-.03,45.59,22.03,45.59,62.05,0,0,2.92,2.84,1.82,24.16-.79,12.47-.95,16.89-1.89,18.95-6.79,3.47-20.76,9.42-28.03,10.53-8.68,1.03-14.76.21-17.92-.74-4.74-13.66-3.79-36.32-.32-45.32s6.47-8.84,33.63-14.68"/>
    <path class="cls-4" d="M153.64,201.83c-.07,4.5-.33,9.11-.7,14.68"/>
    <path class="cls-4" d="M143.31,168.83c3.47.95,8.53,4.26,9.63,16.11.18,1.89.32,3.67.42,5.37"/>
    <path class="cls-4" d="M134.31,220.46c-4.74,2.88-54.32,3.16-60.39.74-8.68,1.03-14.76.21-17.92-.74-4.74-13.66-3.79-36.32-.32-45.32s6.47-8.84,33.63-14.68"/>
    <path class="cls-4" d="M75.32,201.83c-.07,4.5-.33,9.11-.7,14.68"/>
    <path class="cls-4" d="M65,168.83c1.92.52,4.97,1.89,6.28,5.21"/>
    <path class="cls-4" d="M128.94,189.66c-6.47-1.36-11.21,1.64-11.21,1.64"/>
  </g>
  <g id="dev">
    <path class="cls-6" d="M137.83,100.19l-16.03-3.26-8.43,7.33c-.48,9.66-1.09,14.46,2.31,18.15,3.02,3.29,10.42,3.63,13.42,2.68"/>
    <path class="cls-5" d="M121.05,125.09s-.16,5.65,1.5,10.62"/>
    <path d="M116.55,91.53c-2.89,1.59-5.38,4.32-5.5,7.61s1.96,6.59,5.26,6.68c.2-.36-.03-1.84.67-1.16.74.64,1.92.71,2.73.15-1.23-1.18-1.25-3.67-.08-4.41,1.44-.91,3.64-1.51,5.35-1.57,1.59-.06,3.29.07,4.56,1.03s1.81,3,.73,4.16c.68.29,1.57-.08,1.84-.78.12,1.3,1.4,4.16,3.39,3.3.08,3.04-.1,5.14-1.12,8,.21,1.74,1.13,1.39,1.62.82s.67-1.35,1.07-1.99c.69-1.13,2.1-1.76,3.4-1.53s2.41,1.3,2.67,2.6c.6-2.15,1.96-4,3.02-5.97s1.4-4.32.73-6.45-2.87-3.68-4.79-2.53c1.03-1.13.88-2.99.04-4.28s-2.2-2.12-3.54-2.87c-2.91-1.61-6.45-3.01-9.48-1.64-.19-1.17-.72-2.29-1.52-3.18-.59-.65-1.32-1.09-1.91-.44-1.14,1.23,1.07,3.88.67,4.11,0,0-6.04-1.72-9.79.34Z"/>
    <path class="cls-5" d="M116.72,104.42s.26,1.75-.92,1.39-6.16-3.2-4.03-9.18,9.53-7.52,14.57-5.45c-2.19-3.79-.59-4.32,0-4.32s2.13.06,3.08,3.49c1.78-.83,7.46,0,11.13,3.14s2.07,5.51,2.07,5.51c0,0,2.49-.83,4.09,2.61s-.71,6.25-1.26,7.48c-.84,1.92-1.76,2.85-2.29,6.12"/>
    <path class="cls-5" d="M119.29,92.37c-6.4,3.14-5.43,9.28-3.02,11.61,1.61,1.55,2.87,1.6,3.32,1.07.5-.6-1.2-1.9-.83-3.43.49-2.02,4.6-2.59,5.09-2.66,2.7-.43,5.91.23,6.75,2.31.54,1.35-.64,2.78,0,3.08.75.36,1.74-1.66,1.74-1.66.48.06-.6,2.43.75,3.43.88.65,1.7.71,2.37.47.7,1.9-.68,6.56-.83,6.81-1.01,1.66.24,3.54,1.3,2.31.7-2.76,2.34-3.91,3.91-3.91,2.29,0,4.98,3.91,2.49,8.49-2.14,3.94-6.75,3.76-8.06,1.82,0,0-2.36,4.86,0,12.08"/>
    <path class="cls-4" d="M120.23,166.69c9.1-.17,13.42,8.84,10.82,15.15-.62,1.51-3.04,1.32-3.04,1.32"/>
    <path class="cls-3" d="M121.8,132.9c-1.62,1.99-4.03,9.37,1.58,11.34s13.89-7.35,10.1-13.25c0,0,10.07,3.5,16.15,4.72,3.08.51,3.08.95,5.21,3.69s7.42,8.5,11.76,14.66c1.89,2.57.55,8.53-3.24,9.47-4.04,1.01-16.98,4.56-19.42,5.04-.32,1.11,0,9.33-2.76,12.57s-7.03,2.29-8.61-.87-1.58-9.39.47-14.03c1.86-4.2,5.05-5.47,9.55-6.42s11.84-3.08,13.58-3.71,3.79-.32,3.79-.32"/>
    <path class="cls-5" d="M119.87,115.98c-2.06-1.3-2.21-3.12-1.74-3.79s2.05-1.78,2.92-3.04"/>
    <path class="cls-5" d="M119.63,117.75c.78.3,2.11.71,3.79.67,1.79-.04,3.17-.55,3.95-.91"/>
    <ellipse class="cls-2" cx="127.33" cy="110.48" rx=".75" ry="1.5"/>
    <ellipse class="cls-2" cx="117.91" cy="110.58" rx=".75" ry="1.5"/>
    <path class="cls-5" d="M121.6,131.86s-10.36,3.43-13.26,4.03c-1.07.36-1.68.46-2.9,2.01-1.95,2.49-6.22,12.73-13.38,14.33s-16.76,1.3-22.86-4.09c0,0,1.07-4.5-.89-6.87s-3.43-1.67-4.91-3.53c-1.42.51,0,2.22,0,2.22"/>
    <path class="cls-5" d="M107.87,149.92c-4.86,6.87-8.42,11.91-17.29,16.46-13.38,6.87-30.82,9.71-32.68,15.45-.59,1.83.16,2.4.16,2.4"/>
    <path class="cls-5" d="M95.7,150.57c4.41.96,5.98,5.35,5.14,8.3"/>
    <path class="cls-5" d="M101.06,158.25c-8.53,5.89-24.4,5.47-35.29-4.83"/>
    <path class="cls-5" d="M66.18,153.42c0,.44-2.88.8-6.42.8s-6.42-.36-6.42-.8v-12.65c0-.44,2.88-.8,6.42-.8s6.42.36,6.42.8v12.65Z"/>
    <path class="cls-5" d="M64.76,141.97c-2.01.32-3.35.3-5,.3-1.59,0-3.04-.07-4.16-.19"/>
    <line class="cls-4" x1="155.35" y1="156.4" x2="152.18" y2="152.19"/>
    <path class="cls-4" d="M162.12,148.17c-2.92-.85-8.05.88-10.52,4.88-3.09,5-.34,4.03,1.55,4.03"/>
    <path class="cls-4" d="M150.22,156.4s-.32-4.73-2.33-8.44"/>
    <path class="cls-3" d="M101.06,180c-4.06,2.82-7.07,5.85-7.64,6.52-1.59,1.84-4.91,6.09-4.5,13.5.47,8.64,3.27,20.72,3.27,20.72,0,0-8.48,2.59-8.48,9.59,0,3.67,1.52,6.17,5.57,6.63,5.57.63,12.43-2.61,18.59-10.07-1.18-4.86-4.53-21.79-2.88-27.35,1.42-4.76,7.14-9.31,10.01-11.38"/>
    <path class="cls-4" d="M88.15,236.77c-1.58-3.45-.85-6.32.88-8.57-1.14-2.72-.21-5.21.51-6.29"/>
    <path class="cls-4" d="M106.17,228.83c-3.99-3.2-11.45-4.14-17.13-.63"/>
    <path class="cls-3" d="M68.55,176.96c-1.22.57-7.16,4.27-8.14,5.06-1.89,1.53-5.92,5.11-6.86,12.47-1.09,8.59-.52,20.97-.52,20.97,0,0-8.8,1.02-10.07,7.91-.66,3.61.39,6.35,4.28,7.53,5.36,1.62,12.7-.32,20.1-6.55-.29-4.99-.54-22.25,2.1-27.43s12.9-9.86,15-10.86"/>
    <path class="cls-4" d="M46.18,230.5c-.94-3.68.3-6.37,2.41-8.27-.64-2.89.73-5.16,1.63-6.1"/>
    <path class="cls-4" d="M65.34,225.92c-3.34-3.86-10.51-6.14-16.74-3.71"/>
    <path class="cls-5" d="M57.89,181.84c6.45-7.46,16.09-4.8,20.31-2.25,7.19,4.34,7.28,8.42,5.51,10.42-1.3,1.46-4.47,3.21-9.96,2.24"/>
    <path class="cls-5" d="M90.42,191.17c-2.66-2.57-2.73-5.07-.91-6.99,2.72-2.88,11.86-9.04,13.98-10.46"/>
    <path class="cls-5" d="M88.67,185.38c7.91-8.11,17.09-5.3,21.09-2.94,6.63,3.91,6.23,9.14,4.82,11.41-1.18,1.89-4.59,3.13-8.27,2.9"/>
    <line class="cls-5" x1="83.2" y1="190.51" x2="88.29" y2="187.46"/>
    <path class="cls-6" d="M114.58,193.86s11.16-9.88,18-13.58"/>
    <g>
      <ellipse class="cls-7" cx="59.18" cy="139.5" rx="3.07" ry="2.07"/>
      <path class="cls-1" d="M70.81,89.73c1.68,9.21.58,17.96-2.46,26.52-1.51,4.71-3.94,9.19-5.41,13.69-.64,2.1-1,4.3-1.01,6.64-.02,1.65.16,3.93.4,5.65"/>
      <path class="cls-1" d="M57.34,142.21c-3.66-6.48-4.16-13.49-2.79-20.98,1.02-6.78,1.5-13.93.37-20.42-.59-3.48-1.63-7.89-3.03-11.07"/>
    </g>
  </g>
  <g id="preenchimentos">
    <path d="M152.06,152.58c-1.15,1.06-1.88,2.56-2,4.12,1.64.46,3.45.23,4.93-.63-.57-1.28-1.76-2.71-2.93-3.49Z"/>
    <path d="M63.65,177.64c-1.83.55-3.54,1.53-4.94,2.83-.46.43-.9.91-1.09,1.52s-.04,1.35.49,1.69c3.16-2.15,6.32-4.3,9.48-6.45-1.25-.49-2.72-.37-3.87.32"/>
    <path d="M84.33,186.27c-3.75,1.25-7.27,3.21-10.3,5.76,2.26.63,4.75.8,6.89-.14s3.82-3.2,3.54-5.52"/>
    <path d="M91.49,182.45c-1.38.92-2.57,2.27-2.89,3.9s.41,3.52,1.93,4.18c-.6-.26,4.24-6.84,9.81-10.02-1.74-1.46-7.07.75-8.85,1.94Z"/>
    <path d="M114.99,188.45c-3.49,2.09-6.3,5.01-8.68,8.3,2.49-.08,5.15-.48,7.21-1.88s2.8-4.57,1.47-6.43Z"/>
    <polygon points="116.41 166.46 122.98 164.22 122.98 164.02 115 164.02 116.41 166.46"/>
    <path class="cls-7" d="M117.27,167.92c1.75-1.31,3.78-2.7,5.94-2.31.53.1,1.12.4,1.16.94.05.63-.66,1.01-1.26,1.22-1.33.47-2.67.94-4,1.41-.46.16-.97.33-1.44.18s-.81-.76-.51-1.15"/>
    <path class="cls-7" d="M80.49,167.3c.48.84,1.02,1.74,1.92,2.1.61.24,1.29.2,1.94.16,3.45-.24,6.9-.48,10.35-.72,2.57-.18,5.24-.39,7.46-1.7,2.35-1.39,3.88-3.88,4.67-6.48s.92-5.37,1.02-8.09c.11-2.79-.01-6.04-2.25-7.71-1.57-1.17-3.69-1.15-5.64-1.09-5.34.17-10.69.35-16,.97-1.21.14-2.48.33-3.48,1.03-.79.56-2.27-1.18-3.23-1.28-4.56-.49-7.1-.49-7.77.53,2.97,5.86,8.01,16.98,11.01,22.29Z"/>
    <path d="M120.93,125.41c2.34.29,5.98-.03,8.32-.32l-7.91,3.19c-.17-1.18.03-1.55-.41-2.87Z"/>
    <path d="M92.51,170.92c3.46.53,6.98,1.19,8.93,4.11,2.49-2.43,5.87-3.93,9.34-4.12,2.07-.12,4.15-.12,6.22.03,1,.07,7.81-3.05,9.26-3.34.59-.7,2.34-1.4,3.71-2.05-1.56-.12-7.74,1.84-9.39,2.6-3.16,1.44-3.71,1.74-5.15,1.68-4.61-.16-28.72.14-32.99.38,2.51.49,7.34.3,10.07.71Z"/>
    <path d="M132.29,182.27c-.33,1.29,1.06,2.43,2.37,2.65,2.27.38,4.71-.95,5.62-3.06-2.37,1.73-6.11,1.1-7.79-1.3-.05.44-.09.88-.14,1.33"/>
    <path d="M127.32,220.19c.84-.74,1.36-1.78,1.78-2.82,1.84-4.48,2.98-11.24,2.06-15.99.28,1.94-.09,5.62.19,7.56.27,1.86,2.4,9.58,3.47,11.42-2.39,1.45-10.74,2.17-11.25,1.62.86-.17,3.06-1.19,3.74-1.8Z"/>
    <path d="M74.85,209.15c-.02,3.62-5.91,16.82-7.66,5.31-.11-.73.65,6.72.04,7.22,2.69-.86,9.74.26,12.03.32-3.28-3.45-4.24-10.46-4.41-12.85Z"/>
    <path class="cls-5" d="M110.82,135.18c-2.06-.36-3.71-2.35-3.67-4.44"/>
    <path class="cls-5" d="M105.84,137.41c-.86.23-1.86-.78-2.24-1.59"/>
    <path class="cls-5" d="M150.71,135.84c1.3.25,2.71-.57,3.15-1.81"/>
    <path class="cls-5" d="M154.39,138.59c1.41.58,3.08.49,4.42-.23"/>
    <path class="cls-5" d="M151.05,166.64c1.05,0,2.08.61,2.6,1.52"/>
    <path class="cls-5" d="M164.85,164.52c-.43-.52-1.12-.83-1.8-.8"/>
    <path class="cls-5" d="M160.55,164.51c.55.27.91.87.88,1.48"/>
  </g>
  <g id="Camada_4" data-name="Camada 4">
    <polyline class="cls-4" points="126.22 164.49 117.1 167.83 105.12 143.99 70.15 143.99 69.15 144.99 81.76 169.83 117.1 169.83 129.97 165.12 129.97 163.12 114.74 163.12"/>
    <line class="cls-4" x1="71.78" y1="145.43" x2="101.81" y2="145.43"/>
    <line class="cls-4" x1="105.22" y1="146.92" x2="115.98" y2="168.33"/>
  </g>
</svg>